<svg xmlns="http://www.w3.org/2000/svg" viewBox="0 0 33.41 9.16"><defs><style>.cls-1{font-size:2.93px;font-family:Gotham-Black, Gotham Black;font-weight:800;}.cls-1,.cls-6{fill:#fff;}.cls-2{letter-spacing:-0.07em;}.cls-3{letter-spacing:0em;}.cls-4{letter-spacing:-0.01em;}.cls-5{letter-spacing:-0.01em;}</style></defs><title>Asset 3221</title><g id="Layer_2" data-name="Layer 2"><g id="Layer_1-2" data-name="Layer 1"><text class="cls-1" transform="translate(16.35 3.18)">Millennium <tspan class="cls-2" x="0" y="2.74">V</tspan><tspan class="cls-3" x="2.01" y="2.74">entu</tspan><tspan class="cls-4" x="8.76" y="2.74">r</tspan><tspan x="9.98" y="2.74">e </tspan><tspan class="cls-5"><tspan x="0" y="5.48">P</tspan><tspan class="cls-3" x="1.93" y="5.48">artners</tspan></tspan></text><path class="cls-6" d="M15.86,8.28,11.2.22A.41.41,0,0,0,10.83,0h0a.41.41,0,0,0-.37.22L9.39,2.06,8.33.22a.43.43,0,0,0-.75,0L6.52,2.06,5.46.22a.43.43,0,0,0-.75,0L.06,8.28a.42.42,0,0,0,0,.43.42.42,0,0,0,.37.21H15.48a.44.44,0,0,0,.38-.21A.47.47,0,0,0,15.86,8.28ZM8,.69,9.07,2.62,8,4.54,6.85,2.62ZM5.09.69,6.2,2.62,2.93,8.28a.2.2,0,0,0,0,.08H.66ZM6.52,3.18,7.63,5.11,5.8,8.28a.19.19,0,0,0,0,.08H3.53ZM6.4,8.36,8,5.67,9.51,8.36Zm3.75,0a.2.2,0,0,0,0-.08L8.28,5.11,9.39,3.18l3,5.18Zm2.87,0a.2.2,0,0,0,0-.08L9.72,2.62,10.83.69l4.43,7.67Z"/></g></g></svg>